<svg id="Layer_1" height="512" viewBox="0 0 128 128" width="512" xmlns="http://www.w3.org/2000/svg" data-name="Layer 1"><path d="m84.047 61.807a17.63 17.63 0 0 0 17.288-14.221 15.445 15.445 0 0 0 3.013-1.274c5-2.757 7.431-6.99 7.431-12.939a19.893 19.893 0 0 0 -19.871-19.873 1.75 1.75 0 0 0 -1 3.188c1.762 1.22 5.384 4.472 5.341 6.738-.009.465-.167 1.177-1.434 1.986-.224.143-.414.259-.623.389-4.466-1.515-5.758-3.832-5.8-3.911a1.707 1.707 0 0 0 -1.616-.977 1.749 1.749 0 0 0 -1.562 1.06c-3.389 7.91-3.663 14.322-.813 19.058a14.332 14.332 0 0 0 6.709 5.655 7.465 7.465 0 0 1 -5.71 4.887 7.57 7.57 0 0 1 -7.235-2.686l.1-2.059a7.659 7.659 0 0 0 -5.995-7.855l.88-1.781a1.75 1.75 0 0 0 -3.139-1.551l-1.557 3.15h-8.913l-1.557-3.15a1.75 1.75 0 0 0 -3.139 1.551l.88 1.781a7.659 7.659 0 0 0 -5.995 7.855l.1 2.059a7.576 7.576 0 0 1 -7.23 2.686 7.464 7.464 0 0 1 -5.709-4.885 14.332 14.332 0 0 0 6.709-5.655c2.85-4.736 2.575-11.148-.813-19.058a1.749 1.749 0 0 0 -1.562-1.06 1.7 1.7 0 0 0 -1.616.977c-.012.025-1.288 2.379-5.8 3.91-.208-.13-.4-.246-.623-.388-1.266-.808-1.425-1.52-1.434-1.984-.045-2.254 3.579-5.515 5.342-6.741a1.75 1.75 0 0 0 -1-3.187 19.893 19.893 0 0 0 -19.87 19.871c0 5.949 2.431 10.182 7.431 12.939a15.445 15.445 0 0 0 3.013 1.274 17.6 17.6 0 0 0 23.742 12.99l.16 3.249-5.57 2.246a1.744 1.744 0 0 0 -.49.3l-7 6.061a1.75 1.75 0 1 0 2.291 2.646l6.776-5.87 4.165-1.682.234 4.766-4.439 2.24a1.732 1.732 0 0 0 -.462.338l-6.96 7.1a1.75 1.75 0 1 0 2.5 2.449l6.757-6.9 3-1.515a29.353 29.353 0 0 0 3.356 9.451 10.556 10.556 0 0 0 4.445 4.245v4.76a20.052 20.052 0 0 0 19.96 20.04 20.185 20.185 0 0 0 6.136-.962 18.888 18.888 0 0 0 11.785-11.038 10.966 10.966 0 0 0 3.033-1.133 10.188 10.188 0 0 0 5.494-9.554 14.51 14.51 0 0 0 -14.493-14.491 1.75 1.75 0 0 0 -1 3.188c1.5 1.036 3.555 3.107 3.532 4.3 0 .132-.009.484-.769.969-.335.213-.645.4-.933.582a9.326 9.326 0 0 0 -4.5 4.831 8.214 8.214 0 0 0 .751 7.5 9.185 9.185 0 0 1 -5.833 5.643 10.362 10.362 0 0 1 -13.51-9.873v-4.762a10.556 10.556 0 0 0 4.435-4.242 29.353 29.353 0 0 0 3.356-9.451l3 1.515 6.757 6.9a1.75 1.75 0 0 0 2.5-2.449l-6.96-7.1a1.732 1.732 0 0 0 -.462-.338l-4.439-2.24.234-4.766 4.165 1.682 6.776 5.87a1.75 1.75 0 0 0 2.291-2.646l-7-6.061a1.744 1.744 0 0 0 -.49-.3l-5.564-2.247.16-3.249a17.693 17.693 0 0 0 6.462 1.229zm-10.141 2.463h-19.812l-.229-4.661h20.271zm22.794-35.905a5.812 5.812 0 0 0 3.051-4.87 8.96 8.96 0 0 0 -2.351-5.545 16.4 16.4 0 0 1 10.88 15.423c0 4.622-1.786 7.76-5.62 9.875-3.894 2.146-6.737 1.488-8.528.439l-.042-.025a7.734 7.734 0 0 1 -1.266-.937c-2.445-2.242-3.416-5.9-2.258-8.519 1.249-2.818 2.275-3.45 4.754-4.979.427-.263.885-.546 1.38-.862zm-9.3-2.359a15.221 15.221 0 0 0 3.291 2.137 11.722 11.722 0 0 0 -3.325 4.645 9.7 9.7 0 0 0 -.743 4.744c-1.087-3.024-.84-6.877.777-11.526zm-3.359 29.194a11.04 11.04 0 0 0 10.412-7.4 15.844 15.844 0 0 0 2.074.357q.073.006.146.006a1.726 1.726 0 0 0 .381-.047c.185.011.37.023.557.025a14.128 14.128 0 0 1 -19.835 8.7l.17-3.465a11.132 11.132 0 0 0 6.095 1.824zm-29.672-11.617a4.125 4.125 0 0 1 3.014-1.292h13.234a4.16 4.16 0 0 1 4.155 4.365l-.465 9.453h-20.615l-.465-9.453a4.122 4.122 0 0 1 1.142-3.073zm-13.769-17.577c1.617 4.649 1.865 8.5.778 11.526a9.7 9.7 0 0 0 -.743-4.744 11.722 11.722 0 0 0 -3.325-4.645 15.221 15.221 0 0 0 3.29-2.137zm-20.878 7.367a16.4 16.4 0 0 1 10.878-15.423 8.96 8.96 0 0 0 -2.354 5.545 5.812 5.812 0 0 0 3.051 4.87c.5.316.954.6 1.382.863 2.479 1.528 3.5 2.161 4.754 4.979 1.158 2.615.188 6.277-2.258 8.519-1.513 1.386-4.8 3.3-9.835.522-3.832-2.115-5.618-5.248-5.618-9.875zm21.662 24.7a14.077 14.077 0 0 1 -10.995-9.932c.187 0 .371-.014.556-.025a1.73 1.73 0 0 0 .382.046q.073 0 .146-.006a15.839 15.839 0 0 0 2.074-.357 11.039 11.039 0 0 0 10.411 7.4 11.133 11.133 0 0 0 6.094-1.828l.17 3.464a14.149 14.149 0 0 1 -8.838 1.235zm49.234 34.539c.813-1.834 1.447-2.226 3.142-3.27.3-.187.627-.387.979-.611a4.582 4.582 0 0 0 2.385-3.853 5.519 5.519 0 0 0 -.713-2.68 11 11 0 0 1 5.671 9.617 6.667 6.667 0 0 1 -3.684 6.49c-2.413 1.33-4.656 1.226-6.315-.3a5.084 5.084 0 0 1 -1.465-5.393zm-19.609 13.043a13.736 13.736 0 0 0 8.137 2.684 13.988 13.988 0 0 0 4.254-.668 12.7 12.7 0 0 0 7.384-6.257 7.855 7.855 0 0 0 2.435 1.068 15.364 15.364 0 0 1 -9.013 7.718 16.517 16.517 0 0 1 -21.533-15.737v-3.683a10.233 10.233 0 0 0 2.654 0v3.684a13.727 13.727 0 0 0 5.682 11.191zm-.794-21.915a7.139 7.139 0 0 1 -12.43 0 25.832 25.832 0 0 1 -3.294-11.381l-.226-4.589h19.469l-.226 4.589a25.832 25.832 0 0 1 -3.293 11.381z"/></svg>